<svg width="1200" height="628" viewBox="0 0 1200 628" fill="none" xmlns="http://www.w3.org/2000/svg">
<rect width="1200" height="628" fill="white"/>
<g clip-path="url(#clip0_1_2)">
<path d="M266.281 191L416 437H109L266.281 191Z" fill="url(#paint0_linear_1_2)"/>
</g>
<path d="M481.976 346.864C479.16 346.864 476.984 346.096 475.448 344.56C473.912 342.96 473.144 340.752 473.144 337.936V287.248C473.144 284.368 473.912 282.16 475.448 280.624C477.048 279.088 479.256 278.32 482.072 278.32H505.688C513.368 278.32 519.288 280.304 523.448 284.272C527.672 288.176 529.784 293.584 529.784 300.496C529.784 307.408 527.672 312.848 523.448 316.816C519.288 320.72 513.368 322.672 505.688 322.672H490.808V337.936C490.808 340.752 490.072 342.96 488.6 344.56C487.128 346.096 484.92 346.864 481.976 346.864ZM490.808 309.136H502.616C505.944 309.136 508.504 308.432 510.296 307.024C512.088 305.552 512.984 303.376 512.984 300.496C512.984 297.552 512.088 295.376 510.296 293.968C508.504 292.56 505.944 291.856 502.616 291.856H490.808V309.136ZM546.851 346.864C544.035 346.864 541.859 346.096 540.323 344.56C538.787 342.96 538.019 340.72 538.019 337.84V286.48C538.019 283.536 538.787 281.296 540.323 279.76C541.859 278.224 544.035 277.456 546.851 277.456C549.731 277.456 551.907 278.224 553.379 279.76C554.915 281.296 555.683 283.536 555.683 286.48V304.432H583.619V286.48C583.619 283.536 584.355 281.296 585.827 279.76C587.363 278.224 589.571 277.456 592.451 277.456C595.267 277.456 597.411 278.224 598.883 279.76C600.419 281.296 601.187 283.536 601.187 286.48V337.84C601.187 340.72 600.419 342.96 598.883 344.56C597.411 346.096 595.267 346.864 592.451 346.864C589.571 346.864 587.363 346.096 585.827 344.56C584.355 342.96 583.619 340.72 583.619 337.84V318.928H555.683V337.84C555.683 340.72 554.947 342.96 553.475 344.56C552.003 346.096 549.795 346.864 546.851 346.864ZM646.128 347.056C639.28 347.056 633.264 345.616 628.08 342.736C622.896 339.792 618.864 335.696 615.984 330.448C613.168 325.2 611.76 319.088 611.76 312.112C611.76 306.864 612.56 302.096 614.16 297.808C615.824 293.52 618.16 289.84 621.168 286.768C624.24 283.696 627.888 281.36 632.112 279.76C636.336 278.096 641.008 277.264 646.128 277.264C652.976 277.264 658.96 278.704 664.08 281.584C669.264 284.464 673.296 288.528 676.176 293.776C679.056 298.96 680.496 305.072 680.496 312.112C680.496 317.36 679.664 322.128 678 326.416C676.4 330.704 674.064 334.416 670.992 337.552C667.984 340.624 664.368 342.992 660.144 344.656C655.92 346.256 651.248 347.056 646.128 347.056ZM646.128 332.272C649.52 332.272 652.4 331.472 654.768 329.872C657.136 328.272 658.96 325.968 660.24 322.96C661.52 319.952 662.16 316.336 662.16 312.112C662.16 305.776 660.752 300.848 657.936 297.328C655.12 293.808 651.184 292.048 646.128 292.048C642.8 292.048 639.92 292.848 637.488 294.448C635.12 295.984 633.296 298.256 632.016 301.264C630.736 304.208 630.096 307.824 630.096 312.112C630.096 318.448 631.504 323.408 634.32 326.992C637.136 330.512 641.072 332.272 646.128 332.272ZM711.756 346.864C708.94 346.864 706.764 346.096 705.228 344.56C703.692 342.96 702.924 340.752 702.924 337.936V292.72H687.852C685.484 292.72 683.66 292.112 682.38 290.896C681.164 289.616 680.556 287.824 680.556 285.52C680.556 283.152 681.164 281.36 682.38 280.144C683.66 278.928 685.484 278.32 687.852 278.32H735.66C738.028 278.32 739.82 278.928 741.036 280.144C742.316 281.36 742.956 283.152 742.956 285.52C742.956 287.824 742.316 289.616 741.036 290.896C739.82 292.112 738.028 292.72 735.66 292.72H720.588V337.936C720.588 340.752 719.852 342.96 718.38 344.56C716.908 346.096 714.7 346.864 711.756 346.864ZM777.472 347.056C770.624 347.056 764.608 345.616 759.424 342.736C754.24 339.792 750.208 335.696 747.328 330.448C744.512 325.2 743.104 319.088 743.104 312.112C743.104 306.864 743.904 302.096 745.504 297.808C747.168 293.52 749.504 289.84 752.512 286.768C755.584 283.696 759.232 281.36 763.456 279.76C767.68 278.096 772.352 277.264 777.472 277.264C784.32 277.264 790.304 278.704 795.424 281.584C800.608 284.464 804.64 288.528 807.52 293.776C810.4 298.96 811.84 305.072 811.84 312.112C811.84 317.36 811.008 322.128 809.344 326.416C807.744 330.704 805.408 334.416 802.336 337.552C799.328 340.624 795.712 342.992 791.488 344.656C787.264 346.256 782.592 347.056 777.472 347.056ZM777.472 332.272C780.864 332.272 783.744 331.472 786.112 329.872C788.48 328.272 790.304 325.968 791.583 322.96C792.864 319.952 793.504 316.336 793.504 312.112C793.504 305.776 792.096 300.848 789.28 297.328C786.464 293.808 782.528 292.048 777.472 292.048C774.144 292.048 771.264 292.848 768.832 294.448C766.464 295.984 764.64 298.256 763.359 301.264C762.08 304.208 761.44 307.824 761.44 312.112C761.44 318.448 762.848 323.408 765.664 326.992C768.48 330.512 772.416 332.272 777.472 332.272ZM847.421 347.056C844.861 347.056 842.173 346.864 839.357 346.48C836.605 346.16 833.981 345.648 831.485 344.944C828.989 344.24 826.749 343.408 824.765 342.448C823.037 341.616 821.821 340.528 821.117 339.184C820.413 337.776 820.157 336.304 820.349 334.768C820.541 333.232 821.085 331.888 821.981 330.736C822.877 329.52 824.061 328.72 825.533 328.336C827.005 327.888 828.669 328.08 830.525 328.912C832.957 330.064 835.709 330.96 838.781 331.6C841.853 332.24 844.733 332.56 847.421 332.56C851.645 332.56 854.589 332.016 856.253 330.928C857.981 329.776 858.845 328.368 858.845 326.704C858.845 325.232 858.237 324.048 857.021 323.152C855.869 322.256 853.789 321.488 850.781 320.848L839.549 318.448C833.405 317.168 828.829 314.928 825.821 311.728C822.813 308.528 821.309 304.4 821.309 299.344C821.309 296.016 821.981 293.008 823.325 290.32C824.733 287.568 826.685 285.232 829.181 283.312C831.741 281.392 834.749 279.92 838.205 278.896C841.725 277.808 845.629 277.264 849.917 277.264C853.245 277.264 856.605 277.648 859.997 278.416C863.453 279.12 866.429 280.208 868.925 281.68C870.397 282.448 871.453 283.504 872.093 284.848C872.733 286.192 872.989 287.6 872.861 289.072C872.733 290.48 872.221 291.728 871.325 292.816C870.493 293.904 869.341 294.64 867.869 295.024C866.461 295.344 864.765 295.088 862.781 294.256C860.925 293.424 858.813 292.816 856.445 292.432C854.141 291.984 851.901 291.76 849.725 291.76C847.357 291.76 845.341 292.048 843.677 292.624C842.013 293.136 840.733 293.904 839.837 294.928C839.005 295.952 838.589 297.136 838.589 298.48C838.589 299.824 839.133 300.976 840.221 301.936C841.373 302.832 843.453 303.6 846.461 304.24L857.597 306.64C863.805 307.984 868.445 310.192 871.517 313.264C874.589 316.336 876.125 320.336 876.125 325.264C876.125 328.592 875.453 331.6 874.109 334.288C872.765 336.976 870.845 339.28 868.349 341.2C865.853 343.056 862.845 344.496 859.325 345.52C855.805 346.544 851.837 347.056 847.421 347.056ZM893.056 346.864C890.368 346.864 888.32 346.16 886.912 344.752C885.504 343.344 884.8 341.264 884.8 338.512V286.192C884.8 283.376 885.504 281.232 886.912 279.76C888.32 278.224 890.176 277.456 892.48 277.456C894.528 277.456 896.128 277.84 897.28 278.608C898.432 279.376 899.712 280.656 901.12 282.448L931.552 320.464H928.864V285.712C928.864 283.024 929.536 280.976 930.88 279.568C932.288 278.16 934.336 277.456 937.024 277.456C939.712 277.456 941.728 278.16 943.072 279.568C944.48 280.976 945.184 283.024 945.184 285.712V338.896C945.184 341.328 944.544 343.28 943.264 344.752C941.984 346.16 940.256 346.864 938.08 346.864C935.904 346.864 934.176 346.48 932.896 345.712C931.68 344.88 930.368 343.6 928.96 341.872L898.528 303.76H901.216V338.512C901.216 341.264 900.512 343.344 899.104 344.752C897.76 346.16 895.744 346.864 893.056 346.864ZM960.718 346.864C958.734 346.864 957.07 346.416 955.726 345.52C954.382 344.56 953.55 343.28 953.23 341.68C952.91 340.016 953.198 338.16 954.094 336.112L977.998 284.656C979.15 282.16 980.558 280.336 982.222 279.184C983.95 278.032 985.902 277.456 988.078 277.456C990.254 277.456 992.142 278.032 993.742 279.184C995.406 280.336 996.846 282.16 998.062 284.656L1021.97 336.112C1022.99 338.16 1023.34 340.016 1023.02 341.68C1022.77 343.344 1021.97 344.624 1020.62 345.52C1019.34 346.416 1017.74 346.864 1015.82 346.864C1013.26 346.864 1011.28 346.288 1009.87 345.136C1008.53 343.984 1007.31 342.128 1006.22 339.568L1001.04 327.376L1007.76 332.272H968.206L975.022 327.376L969.838 339.568C968.686 342.128 967.502 343.984 966.286 345.136C965.07 346.288 963.214 346.864 960.718 346.864ZM987.886 296.752L976.75 323.344L974.062 318.736H1002L999.31 323.344L988.078 296.752H987.886ZM1039.6 346.864C1036.79 346.864 1034.61 346.096 1033.07 344.56C1031.54 342.96 1030.77 340.752 1030.77 337.936V287.248C1030.77 284.368 1031.54 282.16 1033.07 280.624C1034.67 279.088 1036.88 278.32 1039.7 278.32H1063.31C1070.99 278.32 1076.91 280.304 1081.07 284.272C1085.3 288.176 1087.41 293.584 1087.41 300.496C1087.41 307.408 1085.3 312.848 1081.07 316.816C1076.91 320.72 1070.99 322.672 1063.31 322.672H1048.43V337.936C1048.43 340.752 1047.7 342.96 1046.23 344.56C1044.75 346.096 1042.55 346.864 1039.6 346.864ZM1048.43 309.136H1060.24C1063.57 309.136 1066.13 308.432 1067.92 307.024C1069.71 305.552 1070.61 303.376 1070.61 300.496C1070.61 297.552 1069.71 295.376 1067.92 293.968C1066.13 292.56 1063.57 291.856 1060.24 291.856H1048.43V309.136Z" fill="black"/>
<defs>
<linearGradient id="paint0_linear_1_2" x1="266.281" y1="191" x2="174.651" y2="393.911" gradientUnits="userSpaceOnUse">
<stop stop-color="#5E66CD"/>
<stop offset="0.605" stop-color="#B4698C"/>
<stop offset="1" stop-color="#E69E8A"/>
</linearGradient>
<clipPath id="clip0_1_2">
<rect width="307" height="246" fill="white" transform="translate(109 191)"/>
</clipPath>
</defs>
</svg>
